<svg width="16" height="16" viewBox="0 0 16 16" fill="none" xmlns="http://www.w3.org/2000/svg">
<path d="M6 2C5.11595 2 4.2681 2.35119 3.64298 2.97631C3.01786 3.60143 2.66667 4.44928 2.66667 5.33333C2.66667 6.21739 3.01786 7.06523 3.64298 7.69036C4.2681 8.31548 5.11595 8.66667 6 8.66667C6.88406 8.66667 7.7319 8.31548 8.35702 7.69036C8.98214 7.06523 9.33333 6.21739 9.33333 5.33333C9.33333 4.44928 8.98214 3.60143 8.35702 2.97631C7.7319 2.35119 6.88406 2 6 2ZM4 5.33333C4 4.8029 4.21071 4.29419 4.58579 3.91912C4.96086 3.54405 5.46957 3.33333 6 3.33333C6.53043 3.33333 7.03914 3.54405 7.41421 3.91912C7.78929 4.29419 8 4.8029 8 5.33333C8 5.86377 7.78929 6.37247 7.41421 6.74755C7.03914 7.12262 6.53043 7.33333 6 7.33333C5.46957 7.33333 4.96086 7.12262 4.58579 6.74755C4.21071 6.37247 4 5.86377 4 5.33333ZM11.272 5.47867C11.0845 5.38314 10.8771 5.33333 10.6667 5.33333V4C11.0877 4.00003 11.5027 4.09974 11.8778 4.29098C12.2529 4.48222 12.5773 4.75955 12.8246 5.10028C13.0719 5.44101 13.235 5.83545 13.3006 6.25133C13.3662 6.6672 13.3324 7.0927 13.2019 7.49299C13.0714 7.89328 12.8481 8.25699 12.55 8.55437C12.252 8.85174 11.8878 9.07432 11.4872 9.2039C11.0866 9.33347 10.6611 9.36636 10.2453 9.29987C9.82959 9.23337 9.43551 9.06939 9.09533 8.82133L9.88067 7.744C10.0293 7.85221 10.1988 7.92849 10.3784 7.96806C10.558 8.00762 10.7438 8.00961 10.9242 7.9739C11.1046 7.93819 11.2756 7.86555 11.4266 7.76055C11.5776 7.65555 11.7052 7.52046 11.8014 7.36376C11.8977 7.20707 11.9604 7.03216 11.9858 6.85003C12.0112 6.6679 11.9987 6.48248 11.9489 6.30544C11.8992 6.1284 11.8134 5.96356 11.6969 5.82128C11.5804 5.67899 11.4357 5.56235 11.272 5.47867ZM13.332 14C13.3318 13.2932 13.051 12.6153 12.5511 12.1155C12.0513 11.6157 11.3735 11.3348 10.6667 11.3347V10C11.7275 10.0002 12.7448 10.4217 13.4949 11.1718C14.245 11.9219 14.6665 12.9392 14.6667 14H13.332ZM10.6667 14H9.33333C9.33333 13.1159 8.98214 12.2681 8.35702 11.643C7.7319 11.0179 6.88406 10.6667 6 10.6667C5.11595 10.6667 4.2681 11.0179 3.64298 11.643C3.01786 12.2681 2.66667 13.1159 2.66667 14H1.33333C1.33333 12.7623 1.825 11.5753 2.70017 10.7002C3.57534 9.825 4.76232 9.33333 6 9.33333C7.23768 9.33333 8.42466 9.825 9.29983 10.7002C10.175 11.5753 10.6667 12.7623 10.6667 14Z" fill="#F77E23"/>
</svg>
