<svg width="60" height="61" viewBox="0 0 60 61" fill="none" xmlns="http://www.w3.org/2000/svg">
<rect y="0.925781" width="60" height="60" rx="30" fill="#F77E23"/>
<path fill-rule="evenodd" clip-rule="evenodd" d="M35.9375 37.1758L26.5625 30.9258L35.9375 24.6758C36.0606 24.5937 36.1664 24.4882 36.2487 24.3653C36.331 24.2423 36.3883 24.1044 36.4174 23.9593C36.4464 23.8142 36.4465 23.6648 36.4178 23.5196C36.3891 23.3745 36.3321 23.2364 36.25 23.1133C36.1679 22.9902 36.0624 22.8845 35.9395 22.8021C35.8165 22.7198 35.6786 22.6625 35.5335 22.6335C35.3884 22.6044 35.239 22.6043 35.0939 22.633C34.9487 22.6617 34.8106 22.7187 34.6875 22.8008L24.06 29.8858C23.8888 30 23.7484 30.1546 23.6514 30.336C23.5543 30.5175 23.5035 30.72 23.5035 30.9258C23.5035 31.1316 23.5543 31.3342 23.6514 31.5156C23.7484 31.697 23.8888 31.8517 24.06 31.9658L34.6875 39.0508C34.8106 39.1329 34.9487 39.1899 35.0939 39.2186C35.239 39.2473 35.3884 39.2472 35.5335 39.2182C35.6786 39.1891 35.8165 39.1318 35.9395 39.0495C36.0624 38.9672 36.1679 38.8614 36.25 38.7383C36.3321 38.6152 36.3891 38.4771 36.4178 38.332C36.4465 38.1868 36.4464 38.0374 36.4174 37.8923C36.3883 37.7472 36.331 37.6093 36.2487 37.4863C36.1664 37.3634 36.0606 37.2579 35.9375 37.1758Z" fill="white"/>
</svg>
