<svg width="60" height="61" viewBox="0 0 60 61" fill="none" xmlns="http://www.w3.org/2000/svg">
<rect width="60" height="60" rx="30" transform="matrix(-1 0 0 1 60 0.925781)" fill="#F77E23"/>
<path fill-rule="evenodd" clip-rule="evenodd" d="M24.0625 37.1758L33.4375 30.9258L24.0625 24.6758C23.9394 24.5937 23.8336 24.4882 23.7513 24.3653C23.669 24.2423 23.6117 24.1044 23.5826 23.9593C23.5536 23.8142 23.5535 23.6648 23.5822 23.5196C23.6109 23.3745 23.6679 23.2364 23.75 23.1133C23.8321 22.9902 23.9376 22.8845 24.0605 22.8021C24.1835 22.7198 24.3214 22.6625 24.4665 22.6335C24.6116 22.6044 24.761 22.6043 24.9061 22.633C25.0513 22.6617 25.1894 22.7187 25.3125 22.8008L35.94 29.8858C36.1112 30 36.2516 30.1546 36.3486 30.336C36.4457 30.5175 36.4965 30.72 36.4965 30.9258C36.4965 31.1316 36.4457 31.3342 36.3486 31.5156C36.2516 31.697 36.1112 31.8517 35.94 31.9658L25.3125 39.0508C25.1894 39.1329 25.0513 39.1899 24.9061 39.2186C24.761 39.2473 24.6116 39.2472 24.4665 39.2182C24.3214 39.1891 24.1835 39.1318 24.0605 39.0495C23.9376 38.9672 23.8321 38.8614 23.75 38.7383C23.6679 38.6152 23.6109 38.4771 23.5822 38.332C23.5535 38.1868 23.5536 38.0374 23.5826 37.8923C23.6117 37.7472 23.669 37.6093 23.7513 37.4863C23.8336 37.3634 23.9394 37.2579 24.0625 37.1758Z" fill="white"/>
</svg>
