<svg width="41" height="41" viewBox="0 0 41 41" fill="none" xmlns="http://www.w3.org/2000/svg">
<rect width="41" height="41" rx="20.5" fill="#FFE7DB"/>
<path d="M18 12C16.6739 12 15.4021 12.5268 14.4645 13.4645C13.5268 14.4021 13 15.6739 13 17C13 18.3261 13.5268 19.5979 14.4645 20.5355C15.4021 21.4732 16.6739 22 18 22C19.3261 22 20.5979 21.4732 21.5355 20.5355C22.4732 19.5979 23 18.3261 23 17C23 15.6739 22.4732 14.4021 21.5355 13.4645C20.5979 12.5268 19.3261 12 18 12ZM15 17C15 16.2044 15.3161 15.4413 15.8787 14.8787C16.4413 14.3161 17.2044 14 18 14C18.7956 14 19.5587 14.3161 20.1213 14.8787C20.6839 15.4413 21 16.2044 21 17C21 17.7956 20.6839 18.5587 20.1213 19.1213C19.5587 19.6839 18.7956 20 18 20C17.2044 20 16.4413 19.6839 15.8787 19.1213C15.3161 18.5587 15 17.7956 15 17ZM25.908 17.218C25.6268 17.0747 25.3156 17 25 17V15C25.6315 15 26.2541 15.1496 26.8167 15.4365C27.3793 15.7233 27.866 16.1393 28.2369 16.6504C28.6079 17.1615 28.8526 17.7532 28.9509 18.377C29.0493 19.0008 28.9985 19.639 28.8028 20.2395C28.6072 20.8399 28.2721 21.3855 27.825 21.8316C27.378 22.2776 26.8317 22.6115 26.2308 22.8058C25.6299 23.0002 24.9916 23.0495 24.368 22.9498C23.7444 22.8501 23.1533 22.6041 22.643 22.232L23.821 20.616C24.044 20.7783 24.2982 20.8927 24.5676 20.9521C24.837 21.0114 25.1157 21.0144 25.3863 20.9609C25.6569 20.9073 25.9134 20.7983 26.1399 20.6408C26.3663 20.4833 26.5578 20.2807 26.7021 20.0456C26.8465 19.8106 26.9407 19.5482 26.9787 19.275C27.0168 19.0018 26.998 18.7237 26.9234 18.4582C26.8488 18.1926 26.7201 17.9453 26.5454 17.7319C26.3706 17.5185 26.1536 17.3435 25.908 17.218ZM28.998 30C28.9977 28.9397 28.5764 27.923 27.8267 27.1733C27.077 26.4236 26.0603 26.0023 25 26.002V24C26.5912 24.0003 28.1172 24.6325 29.2423 25.7577C30.3675 26.8828 30.9997 28.4088 31 30H28.998ZM25 30H23C23 28.6739 22.4732 27.4021 21.5355 26.4645C20.5979 25.5268 19.3261 25 18 25C16.6739 25 15.4021 25.5268 14.4645 26.4645C13.5268 27.4021 13 28.6739 13 30H11C11 28.1435 11.7375 26.363 13.0503 25.0503C14.363 23.7375 16.1435 23 18 23C19.8565 23 21.637 23.7375 22.9497 25.0503C24.2625 26.363 25 28.1435 25 30Z" fill="#F77E23"/>
</svg>
