<svg width="41" height="42" viewBox="0 0 41 42" fill="none" xmlns="http://www.w3.org/2000/svg">
<rect y="0.925781" width="41" height="41" rx="20.5" fill="#FFE7DB"/>
<g clip-path="url(#clip0_0_710)">
<path d="M14 16.7537C14.885 16.3837 16.154 15.9847 17.388 15.8607C18.718 15.7267 19.846 15.9237 20.5 16.6127V26.3587C19.565 25.8287 18.38 25.7557 17.287 25.8657C16.107 25.9857 14.917 26.3267 14 26.6767V16.7537ZM21.5 16.6127C22.154 15.9237 23.282 15.7267 24.612 15.8607C25.846 15.9847 27.115 16.3837 28 16.7537V26.6767C27.082 26.3267 25.893 25.9847 24.713 25.8667C23.619 25.7557 22.435 25.8277 21.5 26.3587V16.6127ZM21 15.7087C20.015 14.8617 18.587 14.7357 17.287 14.8657C15.773 15.0187 14.245 15.5377 13.293 15.9707C13.2056 16.0104 13.1316 16.0744 13.0796 16.1551C13.0277 16.2358 13 16.3297 13 16.4257V27.4257C13 27.5093 13.021 27.5916 13.0611 27.6651C13.1012 27.7385 13.1591 27.8007 13.2294 27.846C13.2998 27.8913 13.3803 27.9182 13.4638 27.9242C13.5472 27.9303 13.6308 27.9153 13.707 27.8807C14.589 27.4807 16.01 26.9997 17.387 26.8607C18.796 26.7187 19.977 26.9477 20.61 27.7377C20.6569 27.7961 20.7162 27.8432 20.7837 27.8756C20.8512 27.908 20.9251 27.9248 21 27.9248C21.0749 27.9248 21.1488 27.908 21.2163 27.8756C21.2838 27.8432 21.3431 27.7961 21.39 27.7377C22.023 26.9477 23.204 26.7187 24.612 26.8607C25.99 26.9997 27.412 27.4807 28.293 27.8807C28.3692 27.9153 28.4528 27.9303 28.5362 27.9242C28.6197 27.9182 28.7002 27.8913 28.7706 27.846C28.8409 27.8007 28.8988 27.7385 28.9389 27.6651C28.979 27.5916 29 27.5093 29 27.4257V16.4257C29 16.3297 28.9723 16.2358 28.9204 16.1551C28.8684 16.0744 28.7944 16.0104 28.707 15.9707C27.755 15.5377 26.227 15.0187 24.713 14.8657C23.413 14.7347 21.985 14.8617 21 15.7087Z" fill="#F77E23"/>
</g>
<defs>
<clipPath id="clip0_0_710">
<rect width="16" height="16" fill="white" transform="translate(13 13.9258)"/>
</clipPath>
</defs>
</svg>
