<svg width="68" height="19" viewBox="0 0 68 19" fill="none" xmlns="http://www.w3.org/2000/svg">
<path fill-rule="evenodd" clip-rule="evenodd" d="M41.9779 1.1044L41.3666 1.28035V6.61674V11.9531H42.0295H42.6923V9.27509V6.59702L42.9627 6.43653C44.3369 5.62047 45.3638 5.56071 45.9191 6.26444C46.0688 6.45422 46.1653 6.63973 46.245 6.89107C46.2965 7.05335 46.3005 7.2179 46.3089 9.50869L46.3179 11.9531H46.966H47.6141L47.6054 9.29555L47.5967 6.63797L47.529 6.43887C47.3405 5.88436 46.9173 5.40797 46.4039 5.17243C45.5215 4.76754 44.0367 4.95071 42.9198 5.60227C42.8099 5.66638 42.7138 5.71881 42.7062 5.71881C42.6986 5.71881 42.6923 4.63979 42.6923 3.32099C42.6923 1.05412 42.6895 0.923311 42.6408 0.925815C42.6124 0.92728 42.3141 1.00763 41.9779 1.1044ZM7.17619 1.34045C5.77048 1.44396 5.00742 1.63216 4.56835 1.98371C4.39094 2.12576 4.25921 2.33181 4.18158 2.58881C4.12171 2.78695 4.11715 2.86338 4.11476 3.70731L4.11217 4.61315L6.01982 4.62L7.92747 4.62687V4.82549V5.02411L5.09177 5.03239L2.25608 5.04071L2.02038 5.10137C1.19395 5.31409 0.605895 5.83172 0.327834 6.59113C0.247286 6.81115 0.0721358 7.61045 0.0332168 7.93575C-0.0412331 8.55782 0.00976534 9.26126 0.183207 10.0047C0.397659 10.924 0.68167 11.423 1.19545 11.7834C1.34954 11.8915 1.50239 11.9601 1.75523 12.0344C1.94537 12.0903 2.02734 12.096 2.80654 12.1067L3.65162 12.1183L3.66211 11.1232C3.67222 10.1664 3.67525 10.1209 3.7411 9.94163C3.86719 9.59824 4.05354 9.30746 4.30243 9.06568C4.54464 8.83043 4.92346 8.59717 5.21722 8.50241C5.63608 8.36728 5.5233 8.37327 7.97166 8.35611C10.4609 8.33869 10.3074 8.34804 10.6969 8.19C11.1825 7.99287 11.5876 7.54365 11.7482 7.02429C11.7976 6.86433 11.8017 6.7057 11.8017 4.94618C11.8017 3.20928 11.7971 3.02628 11.7498 2.87138C11.5632 2.26073 10.9985 1.76508 10.2326 1.53966C10.0098 1.47412 9.38243 1.38886 8.84225 1.35076C8.48223 1.32537 7.46639 1.31908 7.17619 1.34045ZM6.08732 2.47821C6.34425 2.58641 6.48897 2.79243 6.49165 3.05388C6.49359 3.24253 6.41154 3.41147 6.25672 3.53757C6.10361 3.66228 5.96387 3.70249 5.73027 3.68903C5.50898 3.6763 5.34629 3.5888 5.20443 3.40628C5.13473 3.3166 5.1141 3.25814 5.10462 3.12325C5.09802 3.02977 5.10803 2.91107 5.12686 2.85949C5.26006 2.49455 5.70584 2.31756 6.08732 2.47821ZM65.0538 2.64161V2.73486H65.319H65.5841V3.37428V4.0137H65.702H65.8198V3.37428V2.73486H66.085H66.3501V2.64161V2.54836H65.702H65.0538V2.64161ZM66.5269 3.2797V4.0137H66.63H66.7331L66.7343 3.46087L66.7354 2.90804L66.9345 3.45421L67.1337 4.00037H67.2501H67.3666L67.563 3.48085L67.7594 2.96132L67.7692 3.48085L67.779 4.00037L67.8895 4.00863L68 4.01692V3.28263V2.54836H67.8563H67.7125L67.488 3.12331C67.3645 3.43953 67.2626 3.71229 67.2616 3.72942C67.2606 3.74658 67.1696 3.49084 67.0593 3.16114L66.8589 2.56168L66.6929 2.55369L66.5269 2.5457V3.2797ZM37.8901 2.84282C37.6227 2.92991 37.3476 3.02017 37.2787 3.04341L37.1535 3.08561V4.04255V4.99946H36.7263H36.2991V5.37246V5.74545H36.725H37.1509L37.1612 8.18989C37.1706 10.4377 37.1756 10.6472 37.2237 10.7942C37.3216 11.0932 37.4487 11.2883 37.6856 11.5039C38.0229 11.8106 38.4085 11.9644 39.0089 12.0317C39.2879 12.063 39.6616 12.0683 39.8014 12.043L39.8935 12.0264V11.725V11.4236L39.7535 11.4082C38.9587 11.3208 38.6316 11.1193 38.5099 10.6421C38.4919 10.5713 38.4805 9.61723 38.48 8.13661L38.4793 5.74545H39.1864H39.8935V5.37246V4.99946H39.1864H38.4793V3.84052C38.4793 2.75396 38.4761 2.68166 38.4278 2.68301C38.3994 2.68381 38.1574 2.75572 37.8901 2.84282ZM23.2034 4.87907C22.1271 5.01702 21.2283 5.36409 20.6623 5.86028L20.4487 6.04752V10.5989C20.4487 13.1021 20.4522 15.1502 20.4564 15.1502C20.4606 15.1502 20.7409 15.2401 21.0792 15.35C21.4175 15.4599 21.7124 15.5499 21.7344 15.5499C21.7679 15.5499 21.7745 15.2153 21.7745 13.5281V11.5063L22.1442 11.6756C22.5297 11.8522 22.892 11.9696 23.2918 12.0478C23.5735 12.1029 24.2549 12.1109 24.5439 12.0626C25.8913 11.8372 26.8178 10.8394 27.0635 9.34886C27.1192 9.0105 27.1265 8.22727 27.0773 7.8502C26.9576 6.93256 26.604 6.14807 26.0589 5.59026C25.7574 5.28185 25.2751 5.02288 24.8091 4.9193C24.4759 4.84526 23.6322 4.8241 23.2034 4.87907ZM29.1031 5.03215L28.4918 5.22134V7.77038C28.4918 10.2201 28.494 10.3274 28.5499 10.5249C28.7322 11.1695 29.3469 11.7206 30.1514 11.9609C30.3976 12.0344 30.4651 12.0426 30.9129 12.0537C31.4537 12.067 31.8343 12.0368 32.3365 11.9407C32.6857 11.8738 33.2409 11.7188 33.4966 11.6167C33.5837 11.582 33.6617 11.5535 33.67 11.5535C33.7023 11.5535 33.6496 12.7529 33.6067 12.9969C33.5029 13.5864 33.282 13.9187 32.8021 14.2067C32.4066 14.4442 31.9813 14.5657 31.0664 14.7025L30.5033 14.7867L30.6089 15.1549L30.7145 15.5232H30.8564C31.5186 15.5232 32.5263 15.3031 33.1725 15.0174C34.0511 14.6288 34.5009 14.1586 34.7047 13.4156C34.8991 12.7069 34.9144 12.3414 34.9144 8.42088V4.99946H34.2663H33.6181V7.82151V10.6435L33.4487 10.7406C33.2003 10.8828 32.7826 11.059 32.5126 11.1355C31.6466 11.3808 30.7782 11.2458 30.2609 10.7854C30.0348 10.5842 29.9276 10.4129 29.8451 10.1213C29.7907 9.92898 29.7881 9.80394 29.7881 7.3797C29.7881 5.36449 29.7805 4.83996 29.7513 4.84129C29.731 4.84222 29.4393 4.92812 29.1031 5.03215ZM51.6045 4.88037C50.5336 5.05813 49.6668 5.68734 49.1613 6.65396C48.765 7.41161 48.662 8.4196 48.8807 9.3994C49.1118 10.4344 49.777 11.3175 50.6524 11.7513C51.4809 12.1619 52.7595 12.1978 53.682 11.8363C54.5158 11.5095 55.2077 10.7722 55.5509 9.84452C55.7236 9.3779 55.7815 9.01535 55.7845 8.38305C55.7867 7.9187 55.7773 7.79289 55.7217 7.54317C55.4247 6.20898 54.4829 5.23608 53.1907 4.92862C52.9419 4.86942 52.8257 4.85834 52.3705 4.85045C51.9919 4.84387 51.7728 4.85243 51.6045 4.88037ZM59.9569 4.85615C59.6566 4.88924 59.02 5.01476 58.7448 5.09516C58.3412 5.21311 57.7061 5.50279 57.2759 5.76522L56.9371 5.97191L56.9296 8.96252L56.9221 11.9531H57.5704H58.2187V9.051V6.14887L58.4331 6.02802C58.689 5.88381 58.9999 5.76442 59.3228 5.68639C59.6396 5.60982 60.2899 5.60395 60.5733 5.67512C60.8456 5.74351 61.0727 5.85514 61.2687 6.01696C61.4822 6.19328 61.6117 6.37408 61.7167 6.64255L61.7983 6.85111L61.8068 9.40212L61.8153 11.9531H62.4623H63.1093L63.1088 9.2023C63.1084 6.91814 63.1012 6.42094 63.0661 6.27145C62.9485 5.76951 62.4724 5.29333 61.8478 5.05296C61.4577 4.90286 61.2066 4.86252 60.6051 4.85322C60.3053 4.84859 60.0136 4.84992 59.9569 4.85615ZM12.2581 5.86969C12.258 6.33619 12.2443 6.79583 12.2277 6.89107C12.152 7.32519 11.9235 7.74494 11.5878 8.06678C11.2566 8.38425 10.9364 8.56424 10.4702 8.69493L10.2108 8.76766L7.92747 8.78226C5.67123 8.79667 5.64191 8.79753 5.45268 8.85566C5.17353 8.94142 4.91229 9.09142 4.68953 9.29385C4.45546 9.50656 4.30125 9.73241 4.19263 10.0216L4.11258 10.2347L4.10362 12.0863C4.09729 13.3965 4.10463 13.9913 4.12867 14.1204C4.171 14.3476 4.34241 14.6622 4.52758 14.8525C4.9934 15.3311 5.86612 15.6701 7.08781 15.8468C7.4572 15.9002 8.49222 15.8929 8.87988 15.8341C10.5516 15.5805 11.4886 15.0688 11.7485 14.2675C11.7845 14.1564 11.7979 13.9449 11.8085 13.3186L11.8222 12.5126H9.88956H7.95693V12.3137V12.1148L11.0136 12.1069L14.0702 12.099L14.2617 12.0372C14.5346 11.9492 14.6866 11.8627 14.8764 11.6875C15.3687 11.233 15.8329 10.0735 15.9191 9.0834C16.0049 8.09704 15.7116 6.65468 15.2711 5.89667C15.1306 5.65484 14.7881 5.32626 14.5653 5.21964C14.217 5.05286 14.1558 5.04468 13.1643 5.03255L12.2583 5.02147L12.2581 5.86969ZM24.3309 5.71404C24.9742 5.93509 25.3524 6.45768 25.5318 7.37354C25.6141 7.79407 25.648 8.48192 25.6094 8.95352C25.5146 10.1159 25.1607 10.7822 24.4763 11.0867C23.8137 11.3815 23.0027 11.2907 22.0617 10.8161L21.7745 10.6713V8.41012V6.14895L21.9439 6.05698C22.1568 5.94138 22.5746 5.79255 22.8918 5.71932C23.363 5.61053 24.0226 5.60811 24.3309 5.71404ZM52.7672 5.72214C53.5836 5.9186 54.111 6.56646 54.3155 7.62374C54.3772 7.94286 54.3776 8.81761 54.3162 9.2383C54.1447 10.4143 53.6541 11.0736 52.7977 11.279C52.666 11.3106 52.4959 11.3247 52.2527 11.3243C51.9483 11.3237 51.8694 11.314 51.6851 11.2546C51.4018 11.1632 51.2172 11.0526 51.0039 10.8465C50.4674 10.3279 50.1734 9.43004 50.1765 8.32028C50.1805 6.92696 50.6687 6.0541 51.6096 5.75821C52.01 5.6323 52.3499 5.62172 52.7672 5.72214ZM10.3011 13.4577C10.687 13.5617 10.8962 13.9224 10.7789 14.2813C10.7563 14.3503 10.6882 14.4405 10.5948 14.525C10.3659 14.732 10.1047 14.778 9.82566 14.6605C9.53346 14.5375 9.36002 14.2354 9.42354 13.9602C9.46558 13.7782 9.58705 13.6177 9.74682 13.533C9.96298 13.4184 10.0912 13.401 10.3011 13.4577ZM7.14673 17.0844C5.49879 17.1971 4.60692 17.3768 4.25146 17.6678C4.07858 17.8093 4.06998 17.9053 4.21773 18.0434C4.83831 18.6237 8.25278 18.8609 10.4973 18.4796C11.3669 18.3318 11.8753 18.1061 11.8753 17.8677C11.8753 17.5492 11.0143 17.2778 9.54786 17.1341C9.14444 17.0945 7.49703 17.0604 7.14673 17.0844Z" fill="#F7F7F7"/>
</svg>
